# xmcd
# Track frame offsets:
# 182
# 14597
# 28002
# 44095
# 56420
# 69777
# 87330
# 100260
# 111915
# 123727
#
# Disc length: 1836 seconds
# Revision: 0
# Processed by: cddbd v1.4PL0 Copyright (c) Steve Scherf et al.
# Submitted via: VisiTrax 2.9.5.180 - For more info visit www.synapsa.com
#
DISCID=88072a0a
DTITLE=Johnny Duncan - Faraway Hidaway
DYEAR=1986
DGENRE=
TTITLE0=A Faraway Hidaway
TTITLE1=Texas Moon
TTITLE2=Paradise Isle
TTITLE3=You´re iI Love
TTITLE4=She Can Put Her Shoes Under Under My Bed (Anytime)
TTITLE5=Biloxi
TTITLE6=It´s Gonna Be A Long Night
TTITLE7=The Look Of A Lady In Love
TTITLE8=She Made A Mean Margarita
TTITLE9=Stranger
EXTD=Pharaoh Rec.
EXTT0=
EXTT1=
EXTT2=
EXTT3=
EXTT4=
EXTT5=
EXTT6=
EXTT7=
EXTT8=
EXTT9=
PLAYORDER=
